<svg id="visual" viewBox="0 0 960 540" width="960" height="540" xmlns="http://www.w3.org/2000/svg" xmlns:xlink="http://www.w3.org/1999/xlink" version="1.1"><rect x="0" y="0" width="960" height="540" fill="#001220"></rect><path d="M0 227L20 218C40 209 80 191 120 194.7C160 198.3 200 223.7 240 228.5C280 233.3 320 217.7 360 217.8C400 218 440 234 480 231.5C520 229 560 208 600 197.2C640 186.3 680 185.7 720 189C760 192.3 800 199.7 840 207.3C880 215 920 223 940 227L960 231L960 541L940 541C920 541 880 541 840 541C800 541 760 541 720 541C680 541 640 541 600 541C560 541 520 541 480 541C440 541 400 541 360 541C320 541 280 541 240 541C200 541 160 541 120 541C80 541 40 541 20 541L0 541Z" fill="#c62368"></path><path d="M0 232L20 241.5C40 251 80 270 120 276.8C160 283.7 200 278.3 240 278.5C280 278.7 320 284.3 360 282C400 279.7 440 269.3 480 267.5C520 265.7 560 272.3 600 269.3C640 266.3 680 253.7 720 256.7C760 259.7 800 278.3 840 285.8C880 293.3 920 289.7 940 287.8L960 286L960 541L940 541C920 541 880 541 840 541C800 541 760 541 720 541C680 541 640 541 600 541C560 541 520 541 480 541C440 541 400 541 360 541C320 541 280 541 240 541C200 541 160 541 120 541C80 541 40 541 20 541L0 541Z" fill="#d23467"></path><path d="M0 335L20 332.2C40 329.3 80 323.7 120 319.5C160 315.3 200 312.7 240 312.7C280 312.7 320 315.3 360 322.7C400 330 440 342 480 343.7C520 345.3 560 336.7 600 332C640 327.3 680 326.7 720 329C760 331.3 800 336.7 840 331.8C880 327 920 312 940 304.5L960 297L960 541L940 541C920 541 880 541 840 541C800 541 760 541 720 541C680 541 640 541 600 541C560 541 520 541 480 541C440 541 400 541 360 541C320 541 280 541 240 541C200 541 160 541 120 541C80 541 40 541 20 541L0 541Z" fill="#de4467"></path><path d="M0 344L20 345.7C40 347.3 80 350.7 120 354.2C160 357.7 200 361.3 240 362.2C280 363 320 361 360 362.3C400 363.7 440 368.3 480 368.2C520 368 560 363 600 365C640 367 680 376 720 376.3C760 376.7 800 368.3 840 362.8C880 357.3 920 354.7 940 353.3L960 352L960 541L940 541C920 541 880 541 840 541C800 541 760 541 720 541C680 541 640 541 600 541C560 541 520 541 480 541C440 541 400 541 360 541C320 541 280 541 240 541C200 541 160 541 120 541C80 541 40 541 20 541L0 541Z" fill="#e85467"></path><path d="M0 435L20 432.7C40 430.3 80 425.7 120 422.8C160 420 200 419 240 418.3C280 417.7 320 417.3 360 416.7C400 416 440 415 480 414.3C520 413.7 560 413.3 600 413.5C640 413.7 680 414.3 720 412.7C760 411 800 407 840 406.2C880 405.3 920 407.7 940 408.8L960 410L960 541L940 541C920 541 880 541 840 541C800 541 760 541 720 541C680 541 640 541 600 541C560 541 520 541 480 541C440 541 400 541 360 541C320 541 280 541 240 541C200 541 160 541 120 541C80 541 40 541 20 541L0 541Z" fill="#f16367"></path><path d="M0 477L20 473.5C40 470 80 463 120 466C160 469 200 482 240 483.5C280 485 320 475 360 471.3C400 467.7 440 470.3 480 470.3C520 470.3 560 467.7 600 468.7C640 469.7 680 474.3 720 472.8C760 471.3 800 463.7 840 461.2C880 458.7 920 461.3 940 462.7L960 464L960 541L940 541C920 541 880 541 840 541C800 541 760 541 720 541C680 541 640 541 600 541C560 541 520 541 480 541C440 541 400 541 360 541C320 541 280 541 240 541C200 541 160 541 120 541C80 541 40 541 20 541L0 541Z" fill="#fa7268"></path></svg>